<?xml version="1.0" standalone="no"?>
<!DOCTYPE svg PUBLIC "-//W3C//DTD SVG 20010904//EN"
 "http://www.w3.org/TR/2001/REC-SVG-20010904/DTD/svg10.dtd">
<svg version="1.0" xmlns="http://www.w3.org/2000/svg"
 width="260.000000pt" height="260.000000pt" viewBox="0 0 260.000000 260.000000"
 preserveAspectRatio="xMidYMid meet">
<metadata>
Created by potrace 1.14, written by Peter Selinger 2001-2017
</metadata>
<g transform="translate(0.000000,260.000000) scale(0.100000,-0.100000)"
fill="#000000" stroke="none">
<path d="M1219 2399 c-13 -4 -35 -10 -49 -13 -14 -3 -51 -29 -82 -59 -46 -43
-58 -61 -64 -95 -4 -23 -15 -52 -25 -63 -24 -28 -24 -80 0 -108 11 -12 22 -40
26 -62 4 -23 14 -43 26 -49 10 -6 19 -17 19 -25 0 -8 11 -22 25 -31 13 -9 27
-24 30 -35 4 -10 13 -19 21 -19 8 0 19 -10 25 -23 6 -13 20 -27 32 -32 32 -14
37 -89 7 -105 -18 -9 -23 -7 -38 20 -16 31 -19 31 -75 28 -45 -3 -61 -9 -73
-26 -8 -12 -21 -22 -29 -22 -7 0 -16 -9 -20 -19 -3 -11 -17 -26 -30 -35 -14
-9 -25 -23 -25 -31 0 -8 -11 -26 -25 -41 -19 -21 -25 -38 -25 -74 0 -37 -5
-51 -25 -68 -23 -20 -25 -29 -25 -98 0 -70 -10 -111 -32 -125 -5 -3 -13 -32
-17 -63 -5 -38 -15 -63 -29 -77 -12 -11 -22 -28 -22 -38 0 -20 -42 -80 -87
-123 l-28 -28 -228 0 c-220 0 -248 -3 -281 -32 -6 -5 -20 -15 -30 -22 -22 -15
-31 -94 -17 -144 10 -33 107 -133 153 -157 88 -47 108 -57 120 -59 7 -1 24 -9
38 -19 13 -9 37 -17 53 -17 16 0 50 -11 76 -23 38 -20 71 -25 186 -33 77 -5
199 -7 270 -5 171 5 557 5 720 0 205 -6 390 9 446 38 26 12 60 23 76 23 16 0
40 8 53 17 14 10 30 18 36 19 12 2 80 34 126 60 15 8 55 42 89 75 l63 59 0 76
c1 65 -2 78 -19 89 -11 8 -25 18 -31 23 -33 29 -61 32 -281 32 l-228 0 -28 28
c-45 44 -87 103 -87 122 0 9 -11 29 -25 44 -19 20 -25 38 -25 71 0 24 -6 50
-13 57 -28 28 -37 59 -37 132 0 69 -2 78 -25 98 -20 17 -25 31 -25 69 0 37 -6
54 -25 75 -14 15 -25 33 -25 40 0 8 -11 21 -25 30 -14 9 -25 23 -25 30 0 8
-11 19 -24 24 -13 5 -29 17 -34 26 -7 13 -26 19 -68 22 -57 3 -60 3 -76 -28
-15 -27 -20 -29 -38 -20 -30 16 -25 91 7 105 12 5 26 19 32 32 6 13 17 23 25
23 8 0 17 9 21 19 3 11 17 26 30 35 14 9 25 23 25 31 0 8 9 19 19 25 12 6 22
26 26 49 4 22 15 50 26 62 25 29 25 90 0 113 -10 9 -21 35 -24 57 -3 25 -15
49 -31 64 -14 13 -26 29 -26 35 0 5 -5 10 -12 10 -6 0 -22 9 -34 21 -12 11
-42 25 -66 31 -53 13 -157 17 -189 7z m164 -131 c18 -11 46 -37 64 -57 28 -31
32 -44 33 -89 0 -60 -6 -71 -104 -178 -33 -35 -67 -64 -76 -64 -17 0 -130 110
-130 127 0 5 -11 20 -25 33 -21 19 -25 33 -25 78 0 60 21 94 88 144 49 35 129
38 175 6z m-216 -654 c4 -10 -2 -23 -14 -33 -12 -9 -24 -30 -28 -48 -3 -18
-14 -42 -24 -55 -10 -13 -22 -39 -26 -58 -4 -19 -16 -49 -26 -66 -11 -17 -22
-53 -25 -80 -3 -27 -15 -80 -26 -118 -16 -54 -19 -85 -15 -141 4 -40 11 -84
16 -98 5 -13 15 -60 20 -103 9 -60 16 -83 32 -95 24 -18 22 -52 -3 -57 -10 -2
-33 8 -51 22 -19 14 -40 26 -49 26 -8 0 -29 11 -48 25 -19 14 -41 25 -49 25
-26 0 -78 37 -84 59 -3 14 3 32 17 49 44 55 74 108 81 142 4 19 16 49 26 66
10 17 21 57 25 90 3 32 14 79 24 104 10 25 21 67 25 93 3 27 17 69 31 94 13
25 24 52 24 59 0 16 109 114 127 114 8 0 16 -7 20 -16z m327 -8 c47 -32 81
-73 95 -118 7 -20 18 -42 26 -48 8 -6 17 -37 21 -68 3 -31 14 -77 24 -102 10
-25 22 -72 25 -105 4 -33 15 -73 25 -90 10 -16 21 -46 25 -65 7 -37 42 -97 83
-142 17 -18 22 -32 17 -48 -7 -23 -60 -60 -86 -60 -8 0 -30 -11 -49 -25 -19
-14 -40 -25 -48 -25 -9 0 -30 -12 -49 -26 -18 -14 -41 -24 -51 -22 -25 5 -26
33 -3 55 14 13 24 41 31 90 5 38 16 97 25 129 20 78 19 149 -4 225 -10 35 -22
86 -25 113 -3 27 -14 63 -25 80 -10 17 -21 47 -25 67 -4 21 -15 48 -26 61 -10
14 -22 38 -26 54 -3 16 -16 36 -27 45 -12 10 -18 23 -14 33 9 22 20 20 61 -8z
m-165 -61 c5 -19 19 -47 30 -61 12 -15 21 -37 21 -49 0 -12 9 -34 20 -48 11
-14 25 -48 30 -76 5 -28 17 -66 27 -83 14 -26 18 -64 21 -179 4 -138 2 -149
-22 -207 -14 -34 -26 -72 -26 -85 0 -32 -98 -137 -129 -137 -30 0 -131 105
-131 138 0 13 -10 47 -22 75 -21 47 -23 68 -23 207 0 142 2 159 23 197 12 23
22 55 22 70 0 15 11 46 25 68 13 22 25 50 25 61 0 12 9 33 21 48 11 14 25 42
30 61 14 48 44 48 58 0z m-940 -792 c51 -6 55 -8 69 -44 12 -31 21 -40 48 -45
40 -7 89 3 105 22 13 16 55 19 64 5 3 -5 29 -17 59 -25 29 -9 59 -22 65 -30 7
-8 25 -17 40 -21 16 -3 43 -17 62 -31 18 -13 40 -24 49 -24 9 0 25 -9 35 -20
10 -11 32 -24 49 -28 21 -6 31 -14 31 -28 0 -18 -9 -19 -195 -19 -162 0 -202
3 -237 17 -24 10 -69 21 -100 24 -32 3 -70 14 -84 24 -14 10 -42 23 -62 28
-20 6 -49 20 -63 31 -15 12 -32 21 -39 21 -15 0 -105 68 -105 79 0 18 28 43
65 56 46 16 68 17 144 8z m1992 -18 c48 -25 48 -43 -2 -86 -24 -21 -51 -39
-60 -39 -9 0 -28 -9 -43 -21 -14 -11 -43 -25 -63 -31 -20 -5 -48 -18 -62 -28
-14 -10 -51 -21 -82 -24 -31 -3 -74 -14 -95 -23 -33 -15 -71 -18 -239 -18
-182 0 -200 2 -203 17 -2 12 6 21 25 28 15 5 35 15 43 20 8 6 35 20 60 31 25
11 52 26 60 33 8 7 30 18 49 25 19 6 42 18 50 25 9 8 35 19 58 25 23 7 45 16
48 21 10 15 37 12 80 -10 67 -34 119 -24 135 26 8 22 19 36 33 39 12 2 31 6
42 9 35 8 134 -3 166 -19z"/>
</g>
</svg>
